<svg width="46" height="32" viewBox="0 0 46 32" fill="none" xmlns="http://www.w3.org/2000/svg">
<g id="cart">
<path id="Rectangle 21" d="M1.44441 14.2285C0.706649 11.0902 3.08789 8.08423 6.31172 8.08423H39.6883C42.9121 8.08423 45.2934 11.0902 44.5556 14.2285L41.2842 28.1442C40.7531 30.4033 38.7375 32 36.4169 32H9.5831C7.26247 32 5.24686 30.4033 4.71579 28.1442L1.44441 14.2285Z" fill="white"/>
<path id="Subtract" fill-rule="evenodd" clip-rule="evenodd" d="M23 18.8632C28.2692 18.8632 32.5407 14.6405 32.5407 9.43158C32.5407 4.22266 28.2692 0 23 0C17.7308 0 13.4592 4.22266 13.4592 9.43158C13.4592 14.6405 17.7308 18.8632 23 18.8632ZM23 16.7334C27.0794 16.7334 30.3863 13.4643 30.3863 9.43158C30.3863 5.39887 27.0794 2.12971 23 2.12971C18.9206 2.12971 15.6136 5.39887 15.6136 9.43158C15.6136 13.4643 18.9206 16.7334 23 16.7334Z" fill="white"/>
</g>
</svg>
